<!--?xml version="1.0" encoding="utf-8"?-->
<!-- Generator: Adobe Illustrator 22.1.0, SVG Export Plug-In . SVG Version: 6.00 Build 0)  -->
<svg version="1.1" id="Layer_1" xmlns="http://www.w3.org/2000/svg" xmlns:xlink="http://www.w3.org/1999/xlink" x="0px" y="0px" viewBox="0 0 852 284" style="" xml:space="preserve">
<style type="text/css">
	.st0{opacity:0.29;}
	.st1{fill:none;stroke:#FFFFFF;stroke-width:2;stroke-miterlimit:10;}
	.st2{fill:none;stroke:#FFFFFF;stroke-miterlimit:10;}
	.st3{fill:#FFFFFF;}
	.st4{fill:none;}
</style>
<g class="st0">
	<g>
		<path class="st1 lPDjOryy_0" d="M120.3,142.4c17.1,0,23.4,2.6,28.4,6.7c7.2,6,10.8,15.1,10.8,24.5s-3.9,19.2-9.7,24.2c-6.4,5.4-12.6,8-26.9,8
			h-9.2v29H90.1v-92.4H120.3z M113.6,185.1h8.6c2.2,0,6,0,9.1-1.4c3.1-1.4,5.6-4.2,5.6-9.7c0-5.5-2.6-8.1-5.9-9.5s-7.1-1.4-9.7-1.4
			h-7.7V185.1z"></path>
		<path class="st1 lPDjOryy_1" d="M168.2,189.6c0-30.2,23.2-48.9,48.6-48.9c28.4,0,48.7,22.2,48.7,47.9c0,25.7-20.2,47.9-48.9,47.9
			c-29,0-48.5-23.1-48.5-46.8V189.6z M191.8,188.5c0,14.1,9.6,27.3,25.4,27.3c16.7,0,24.8-15.2,24.8-27.1c0-12-8.1-27.3-25.1-27.3
			c-16.3,0-25.2,14-25.2,27V188.5z"></path>
		<path class="st1 lPDjOryy_2" d="M281.2,142.4h30.2c14.5,0,23.4,2.6,28.5,6.6c7.7,6,11.2,15.1,11.2,25.2c0,7.1-2,12.6-4.6,16.7
			c-3.1,4.9-7.6,8-12,9.9l19.1,34h-24.3l-24.1-44.6h3.9c6,0,11.1-0.5,14.2-2.5c2.9-1.9,5.2-6.2,5.2-11.4c0-4.9-2.4-8.7-5.5-10.7
			c-2.6-1.6-6.4-2.5-9.6-2.5h-8.7v71.7h-23.6V142.4z"></path>
		<path class="st1 lPDjOryy_3" d="M376.6,163.1h-18.2v-20.7h59.8v20.7h-18.1v71.7h-23.6V163.1z"></path>
		<path class="st1 lPDjOryy_4" d="M431.2,142.4h23.6v71.7H482v20.7h-50.9V142.4z"></path>
		<path class="st1 lPDjOryy_5" d="M512.5,234.8h-25.6l36.5-92.4h20.3l35.4,92.4h-25.8l-4.4-13.4h-32.3L512.5,234.8z M532.5,170.5l-10,32.2h20.3
			L532.5,170.5z"></path>
		<path class="st1 lPDjOryy_6" d="M647.2,198.7l-0.5-56.3h22.6v92.4h-20.4l-35.3-55.7l0.5,55.7h-22.6v-92.4h20.3L647.2,198.7z"></path>
		<path class="st1 lPDjOryy_7" d="M689,142.4h30.5c10.3,0,28.8,0,40.8,17.2c6.4,8.7,8.5,18.6,8.5,28.7c0,25.2-12.5,46.4-47.5,46.4H689V142.4z
			 M712.5,214.1h10.1c17.6,0,22.6-12.2,22.6-25.3c0-5.2-1.1-11.9-4.5-17.1c-2.7-4.1-7.5-8.5-18-8.5h-10.2V214.1z"></path>
	</g>
</g>
<g class="st0">
	<path class="st2 lPDjOryy_8" d="M93.8,60.6h-11V48.1h36v12.5H108v43.1H93.8V60.6z"></path>
	<path class="st2 lPDjOryy_9" d="M126.3,103.6V48.1h14.2V69h18.2V48.1h14.2v55.5h-14.2V81.4h-18.2v22.2H126.3z"></path>
	<path class="st3 lPDjOryy_10" d="M184.6,48.1h14.2v55.5h-14.2V48.1z"></path>
	<path class="st3 lPDjOryy_11" d="M221.5,85.3c0,6.5,4,7.6,5.8,7.6c3.4,0,5.4-2.8,5.4-5.3c0-2.9-2.3-3.8-10.9-7.4c-3.9-1.6-13.6-5.5-13.6-15.9
		c0-11.2,10.1-17.1,19.4-17.1c7.7,0,18.5,3.9,18.7,17.3h-14c-0.3-1.9-0.8-5.4-5.1-5.4c-2.5,0-4.9,1.7-4.9,4.4
		c0,2.5,1.5,3.2,11.5,7.7c10.4,4.7,13,9.5,13,15.9c0,8.9-4.7,17.8-19.4,17.8c-14.6,0-20.4-8.6-20-19.4H221.5z"></path>
</g>
<path class="st4 lPDjOryy_12" width="1480" height="768" d="M0 -843 L1480 -843 L1480 -75 L0 -75 Z"></path>
<style data-made-with="vivus-instant">.lPDjOryy_0{stroke-dasharray:379 381;stroke-dashoffset:380;animation:lPDjOryy_draw_0 7200ms linear 0ms infinite,lPDjOryy_fade 7200ms linear 0ms infinite;}.lPDjOryy_1{stroke-dasharray:470 472;stroke-dashoffset:471;animation:lPDjOryy_draw_1 7200ms linear 0ms infinite,lPDjOryy_fade 7200ms linear 0ms infinite;}.lPDjOryy_2{stroke-dasharray:487 489;stroke-dashoffset:488;animation:lPDjOryy_draw_2 7200ms linear 0ms infinite,lPDjOryy_fade 7200ms linear 0ms infinite;}.lPDjOryy_3{stroke-dasharray:305 307;stroke-dashoffset:306;animation:lPDjOryy_draw_3 7200ms linear 0ms infinite,lPDjOryy_fade 7200ms linear 0ms infinite;}.lPDjOryy_4{stroke-dasharray:287 289;stroke-dashoffset:288;animation:lPDjOryy_draw_4 7200ms linear 0ms infinite,lPDjOryy_fade 7200ms linear 0ms infinite;}.lPDjOryy_5{stroke-dasharray:419 421;stroke-dashoffset:420;animation:lPDjOryy_draw_5 7200ms linear 0ms infinite,lPDjOryy_fade 7200ms linear 0ms infinite;}.lPDjOryy_6{stroke-dasharray:516 518;stroke-dashoffset:517;animation:lPDjOryy_draw_6 7200ms linear 0ms infinite,lPDjOryy_fade 7200ms linear 0ms infinite;}.lPDjOryy_7{stroke-dasharray:457 459;stroke-dashoffset:458;animation:lPDjOryy_draw_7 7200ms linear 0ms infinite,lPDjOryy_fade 7200ms linear 0ms infinite;}.lPDjOryy_8{stroke-dasharray:184 186;stroke-dashoffset:185;animation:lPDjOryy_draw_8 7200ms linear 0ms infinite,lPDjOryy_fade 7200ms linear 0ms infinite;}.lPDjOryy_9{stroke-dasharray:291 293;stroke-dashoffset:292;animation:lPDjOryy_draw_9 7200ms linear 0ms infinite,lPDjOryy_fade 7200ms linear 0ms infinite;}.lPDjOryy_10{stroke-dasharray:140 142;stroke-dashoffset:141;animation:lPDjOryy_draw_10 7200ms linear 0ms infinite,lPDjOryy_fade 7200ms linear 0ms infinite;}.lPDjOryy_11{stroke-dasharray:256 258;stroke-dashoffset:257;animation:lPDjOryy_draw_11 7200ms linear 0ms infinite,lPDjOryy_fade 7200ms linear 0ms infinite;}.lPDjOryy_12{stroke-dasharray:4496 4498;stroke-dashoffset:4497;animation:lPDjOryy_draw_12 7200ms linear 0ms infinite,lPDjOryy_fade 7200ms linear 0ms infinite;}@keyframes lPDjOryy_draw{100%{stroke-dashoffset:0;}}@keyframes lPDjOryy_fade{0%{stroke-opacity:1;}94.44444444444444%{stroke-opacity:1;}100%{stroke-opacity:0;}}@keyframes lPDjOryy_draw_0{11.11111111111111%{stroke-dashoffset: 380}38.88888888888889%{ stroke-dashoffset: 0;}100%{ stroke-dashoffset: 0;}}@keyframes lPDjOryy_draw_1{12.268518518518519%{stroke-dashoffset: 471}40.0462962962963%{ stroke-dashoffset: 0;}100%{ stroke-dashoffset: 0;}}@keyframes lPDjOryy_draw_2{13.425925925925924%{stroke-dashoffset: 488}41.2037037037037%{ stroke-dashoffset: 0;}100%{ stroke-dashoffset: 0;}}@keyframes lPDjOryy_draw_3{14.583333333333334%{stroke-dashoffset: 306}42.36111111111111%{ stroke-dashoffset: 0;}100%{ stroke-dashoffset: 0;}}@keyframes lPDjOryy_draw_4{15.740740740740739%{stroke-dashoffset: 288}43.51851851851851%{ stroke-dashoffset: 0;}100%{ stroke-dashoffset: 0;}}@keyframes lPDjOryy_draw_5{16.898148148148145%{stroke-dashoffset: 420}44.675925925925924%{ stroke-dashoffset: 0;}100%{ stroke-dashoffset: 0;}}@keyframes lPDjOryy_draw_6{18.055555555555554%{stroke-dashoffset: 517}45.83333333333333%{ stroke-dashoffset: 0;}100%{ stroke-dashoffset: 0;}}@keyframes lPDjOryy_draw_7{19.212962962962962%{stroke-dashoffset: 458}46.99074074074074%{ stroke-dashoffset: 0;}100%{ stroke-dashoffset: 0;}}@keyframes lPDjOryy_draw_8{20.37037037037037%{stroke-dashoffset: 185}48.148148148148145%{ stroke-dashoffset: 0;}100%{ stroke-dashoffset: 0;}}@keyframes lPDjOryy_draw_9{21.52777777777778%{stroke-dashoffset: 292}49.30555555555556%{ stroke-dashoffset: 0;}100%{ stroke-dashoffset: 0;}}@keyframes lPDjOryy_draw_10{22.685185185185183%{stroke-dashoffset: 141}50.462962962962955%{ stroke-dashoffset: 0;}100%{ stroke-dashoffset: 0;}}@keyframes lPDjOryy_draw_11{23.84259259259259%{stroke-dashoffset: 257}51.620370370370374%{ stroke-dashoffset: 0;}100%{ stroke-dashoffset: 0;}}@keyframes lPDjOryy_draw_12{25%{stroke-dashoffset: 4497}52.77777777777778%{ stroke-dashoffset: 0;}100%{ stroke-dashoffset: 0;}}</style></svg>
