<?xml version="1.0" encoding="utf-8"?>
<!-- Generator: Adobe Illustrator 22.1.0, SVG Export Plug-In . SVG Version: 6.00 Build 0)  -->
<svg version="1.1" id="Layer_1" xmlns="http://www.w3.org/2000/svg" xmlns:xlink="http://www.w3.org/1999/xlink" x="0px" y="0px"
	 viewBox="0 0 852 284" style="enable-background:new 0 0 852 284;" xml:space="preserve">
<style type="text/css">
	.st0{opacity:0.29;}
	.st1{fill:none;stroke:#FFFFFF;stroke-width:2;stroke-miterlimit:10;}
	.st2{fill:none;stroke:#FFFFFF;stroke-miterlimit:10;}
	.st3{fill:#FFFFFF;}
	.st4{fill:none;}
</style>
<g class="st0">
	<g>
		<path class="st1" d="M120.3,142.4c17.1,0,23.4,2.6,28.4,6.7c7.2,6,10.8,15.1,10.8,24.5s-3.9,19.2-9.7,24.2c-6.4,5.4-12.6,8-26.9,8
			h-9.2v29H90.1v-92.4H120.3z M113.6,185.1h8.6c2.2,0,6,0,9.1-1.4c3.1-1.4,5.6-4.2,5.6-9.7c0-5.5-2.6-8.1-5.9-9.5s-7.1-1.4-9.7-1.4
			h-7.7V185.1z"/>
		<path class="st1" d="M168.2,189.6c0-30.2,23.2-48.9,48.6-48.9c28.4,0,48.7,22.2,48.7,47.9c0,25.7-20.2,47.9-48.9,47.9
			c-29,0-48.5-23.1-48.5-46.8V189.6z M191.8,188.5c0,14.1,9.6,27.3,25.4,27.3c16.7,0,24.8-15.2,24.8-27.1c0-12-8.1-27.3-25.1-27.3
			c-16.3,0-25.2,14-25.2,27V188.5z"/>
		<path class="st1" d="M281.2,142.4h30.2c14.5,0,23.4,2.6,28.5,6.6c7.7,6,11.2,15.1,11.2,25.2c0,7.1-2,12.6-4.6,16.7
			c-3.1,4.9-7.6,8-12,9.9l19.1,34h-24.3l-24.1-44.6h3.9c6,0,11.1-0.5,14.2-2.5c2.9-1.9,5.2-6.2,5.2-11.4c0-4.9-2.4-8.7-5.5-10.7
			c-2.6-1.6-6.4-2.5-9.6-2.5h-8.7v71.7h-23.6V142.4z"/>
		<path class="st1" d="M376.6,163.1h-18.2v-20.7h59.8v20.7h-18.1v71.7h-23.6V163.1z"/>
		<path class="st1" d="M431.2,142.4h23.6v71.7H482v20.7h-50.9V142.4z"/>
		<path class="st1" d="M512.5,234.8h-25.6l36.5-92.4h20.3l35.4,92.4h-25.8l-4.4-13.4h-32.3L512.5,234.8z M532.5,170.5l-10,32.2h20.3
			L532.5,170.5z"/>
		<path class="st1" d="M647.2,198.7l-0.5-56.3h22.6v92.4h-20.4l-35.3-55.7l0.5,55.7h-22.6v-92.4h20.3L647.2,198.7z"/>
		<path class="st1" d="M689,142.4h30.5c10.3,0,28.8,0,40.8,17.2c6.4,8.7,8.5,18.6,8.5,28.7c0,25.2-12.5,46.4-47.5,46.4H689V142.4z
			 M712.5,214.1h10.1c17.6,0,22.6-12.2,22.6-25.3c0-5.2-1.1-11.9-4.5-17.1c-2.7-4.1-7.5-8.5-18-8.5h-10.2V214.1z"/>
	</g>
</g>
<g class="st0">
	<path class="st2" d="M93.8,60.6h-11V48.1h36v12.5H108v43.1H93.8V60.6z"/>
	<path class="st2" d="M126.3,103.6V48.1h14.2V69h18.2V48.1h14.2v55.5h-14.2V81.4h-18.2v22.2H126.3z"/>
	<path class="st3" d="M184.6,48.1h14.2v55.5h-14.2V48.1z"/>
	<path class="st3" d="M221.5,85.3c0,6.5,4,7.6,5.8,7.6c3.4,0,5.4-2.8,5.4-5.3c0-2.9-2.3-3.8-10.9-7.4c-3.9-1.6-13.6-5.5-13.6-15.9
		c0-11.2,10.1-17.1,19.4-17.1c7.7,0,18.5,3.9,18.7,17.3h-14c-0.3-1.9-0.8-5.4-5.1-5.4c-2.5,0-4.9,1.7-4.9,4.4
		c0,2.5,1.5,3.2,11.5,7.7c10.4,4.7,13,9.5,13,15.9c0,8.9-4.7,17.8-19.4,17.8c-14.6,0-20.4-8.6-20-19.4H221.5z"/>
</g>
<rect y="-843" class="st4" width="1480" height="768"/>
</svg>
